<svg
    width="100%"
    height="100%"
    viewBox="0 0 200 200"
    fill="currentColor"
    xmlns="http://www.w3.org/2000/svg"
    class="size-6"
    style="color: #ffffff;">
    <path
        d="M100 200C86.6892 200 75.3828 191.418 71.3125 179.485C70.3616 176.697 66.7246 175.19 64.0808 176.489C52.7649 182.049 38.7015 180.123 29.2893 170.711C19.8771 161.298 17.9509 147.235 23.5106 135.919C24.8095 133.275 23.303 129.638 20.5152 128.687C8.58225 124.617 -5.81836e-07 113.311 0 100C1.05351e-06 86.6891 8.58227 75.3828 20.5152 71.3125C23.3031 70.3616 24.8096 66.7245 23.5107 64.0808C17.9509 52.7649 19.8772 38.7015 29.2894 29.2893C38.7015 19.8771 52.7649 17.9509 64.0809 23.5106C66.7246 24.8095 70.3616 23.303 71.3125 20.5151C75.3828 8.58225 86.6892 1.05351e-06 100 0C113.311 -5.81836e-07 124.617 8.58225 128.687 20.5151C129.638 23.303 133.275 24.8095 135.919 23.5106C147.235 17.9509 161.298 19.8771 170.711 29.2893C180.123 38.7015 182.049 52.7649 176.489 64.0808C175.19 66.7246 176.697 70.3616 179.485 71.3125C191.418 75.3828 200 86.6891 200 100C200 113.311 191.418 124.617 179.485 128.687C176.697 129.638 175.19 133.275 176.489 135.919C182.049 147.235 180.123 161.298 170.711 170.711C161.299 180.123 147.235 182.049 135.919 176.489C133.275 175.19 129.638 176.697 128.687 179.485C124.617 191.418 113.311 200 100 200Z">
    </path>
</svg>